<svg width="48" height="48" viewBox="0 0 48 48" fill="none" xmlns="http://www.w3.org/2000/svg">
<circle cx="24" cy="24" r="23.3549" fill="white" stroke="#7CD0E9" stroke-width="1.29013"/>
<path d="M20.8904 10.8526H27.0893C28.952 10.8502 30.7969 11.2193 32.5184 11.939C34.24 12.6586 35.8046 13.7145 37.1225 15.0465C38.4405 16.3784 39.486 17.9601 40.1994 19.7012C40.9128 21.4424 41.28 23.3087 41.28 25.1935V29.3805C41.28 31.5179 40.4408 33.5679 38.9471 35.0793C37.4534 36.5907 35.4276 37.4398 33.3152 37.4398H14.6848C12.5724 37.4398 10.5465 36.5907 9.05281 35.0793C7.55912 33.5679 6.71997 31.5179 6.71997 29.3805V25.1935C6.71997 21.39 8.21316 17.7424 10.8711 15.0529C13.5289 12.3635 17.1338 10.8526 20.8927 10.8526H20.8904Z" fill="url(#paint0_linear_274_12807)"/>
<path d="M35.8359 28.6139C35.3774 28.8412 34.8734 28.959 34.3628 28.9581H13.6399C13.1285 28.959 12.6238 28.8412 12.1645 28.6139C11.6397 28.3726 11.2042 27.9688 10.9208 27.4609C10.6374 26.9529 10.5208 26.367 10.5877 25.7877V25.7033C11.1193 21.8058 14.6062 18.8087 18.8837 18.5853C20.6857 18.4896 22.5913 18.4394 24.5712 18.4508C26.1232 18.4508 27.6233 18.5078 29.0762 18.583C33.3695 18.8109 36.8833 21.7899 37.4104 25.7033L37.4217 25.7877C37.4872 26.368 37.3689 26.9543 37.0839 27.4623C36.799 27.9702 36.362 28.3734 35.8359 28.6139Z" fill="url(#paint1_linear_274_12807)"/>
<path style="mix-blend-mode:screen" d="M18.53 28.101C20.6896 28.101 22.4403 26.3295 22.4403 24.1443C22.4403 21.959 20.6896 20.1875 18.53 20.1875C16.3703 20.1875 14.6196 21.959 14.6196 24.1443C14.6196 26.3295 16.3703 28.101 18.53 28.101Z" fill="url(#paint2_radial_274_12807)"/>
<path d="M18.5298 26.9845C20.0798 26.9845 21.3364 25.7131 21.3364 24.1446C21.3364 22.5762 20.0798 21.3047 18.5298 21.3047C16.9797 21.3047 15.7231 22.5762 15.7231 24.1446C15.7231 25.7131 16.9797 26.9845 18.5298 26.9845Z" fill="#EEFDFF"/>
<path d="M18.5299 26.5289C19.8312 26.5289 20.886 25.4615 20.886 24.1448C20.886 22.8281 19.8312 21.7607 18.5299 21.7607C17.2287 21.7607 16.1738 22.8281 16.1738 24.1448C16.1738 25.4615 17.2287 26.5289 18.5299 26.5289Z" fill="url(#paint3_linear_274_12807)"/>
<path d="M20.0414 23.5269C20.0414 23.7018 19.9901 23.8728 19.8941 24.0182C19.7981 24.1637 19.6616 24.277 19.5019 24.3439C19.3422 24.4109 19.1665 24.4284 18.9969 24.3943C18.8274 24.3601 18.6717 24.2759 18.5494 24.1522C18.4272 24.0286 18.344 23.871 18.3103 23.6994C18.2765 23.5279 18.2938 23.3501 18.36 23.1885C18.4261 23.0269 18.5382 22.8888 18.6819 22.7916C18.8256 22.6944 18.9946 22.6426 19.1674 22.6426C19.3992 22.6426 19.6215 22.7357 19.7854 22.9016C19.9493 23.0674 20.0414 23.2924 20.0414 23.5269Z" fill="#EEFDFF"/>
<path d="M18.1804 26.3277C18.3733 26.3277 18.5296 26.1695 18.5296 25.9744C18.5296 25.7793 18.3733 25.6211 18.1804 25.6211C17.9876 25.6211 17.8313 25.7793 17.8313 25.9744C17.8313 26.1695 17.9876 26.3277 18.1804 26.3277Z" fill="#EEFDFF"/>
<path d="M17.3179 25.4441C17.3184 25.4794 17.3084 25.5141 17.2893 25.5437C17.2701 25.5733 17.2427 25.5964 17.2105 25.6101C17.1783 25.6239 17.1428 25.6276 17.1085 25.6208C17.0742 25.614 17.0427 25.597 17.018 25.572C16.9933 25.547 16.9765 25.5152 16.9698 25.4805C16.9631 25.4458 16.9668 25.4098 16.9804 25.3773C16.9939 25.3447 17.0168 25.3169 17.046 25.2976C17.0753 25.2782 17.1096 25.2681 17.1445 25.2686C17.1903 25.2692 17.2341 25.2878 17.2665 25.3206C17.2989 25.3534 17.3173 25.3977 17.3179 25.4441Z" fill="#EEFDFF"/>
<path style="mix-blend-mode:screen" d="M29.0917 28.101C31.2513 28.101 33.0021 26.3295 33.0021 24.1443C33.0021 21.959 31.2513 20.1875 29.0917 20.1875C26.9321 20.1875 25.1814 21.959 25.1814 24.1443C25.1814 26.3295 26.9321 28.101 29.0917 28.101Z" fill="url(#paint4_radial_274_12807)"/>
<path d="M29.0918 26.9845C30.6418 26.9845 31.8984 25.7131 31.8984 24.1446C31.8984 22.5762 30.6418 21.3047 29.0918 21.3047C27.5417 21.3047 26.2852 22.5762 26.2852 24.1446C26.2852 25.7131 27.5417 26.9845 29.0918 26.9845Z" fill="#EEFDFF"/>
<path d="M29.0917 26.5289C30.393 26.5289 31.4478 25.4615 31.4478 24.1448C31.4478 22.8281 30.393 21.7607 29.0917 21.7607C27.7905 21.7607 26.7356 22.8281 26.7356 24.1448C26.7356 25.4615 27.7905 26.5289 29.0917 26.5289Z" fill="url(#paint5_linear_274_12807)"/>
<path d="M30.6032 23.5269C30.6032 23.7018 30.5519 23.8728 30.4559 24.0182C30.3598 24.1637 30.2233 24.277 30.0636 24.3439C29.9039 24.4109 29.7282 24.4284 29.5587 24.3943C29.3892 24.3601 29.2334 24.2759 29.1112 24.1522C28.989 24.0286 28.9057 23.871 28.872 23.6994C28.8383 23.5279 28.8556 23.3501 28.9218 23.1885C28.9879 23.0269 29.0999 22.8888 29.2436 22.7916C29.3874 22.6944 29.5563 22.6426 29.7292 22.6426C29.961 22.6426 30.1833 22.7357 30.3472 22.9016C30.5111 23.0674 30.6032 23.2924 30.6032 23.5269Z" fill="#EEFDFF"/>
<path d="M28.7424 26.3277C28.9353 26.3277 29.0916 26.1695 29.0916 25.9744C29.0916 25.7793 28.9353 25.6211 28.7424 25.6211C28.5496 25.6211 28.3933 25.7793 28.3933 25.9744C28.3933 26.1695 28.5496 26.3277 28.7424 26.3277Z" fill="#EEFDFF"/>
<path d="M27.88 25.4432C27.8803 25.4665 27.876 25.4895 27.8674 25.5111C27.8589 25.5327 27.8461 25.5523 27.83 25.5688C27.8138 25.5854 27.7946 25.5985 27.7734 25.6074C27.7522 25.6164 27.7295 25.621 27.7065 25.621C27.6819 25.6239 27.657 25.6214 27.6335 25.6138C27.6099 25.6062 27.5881 25.5937 27.5697 25.577C27.5512 25.5603 27.5364 25.5399 27.5263 25.517C27.5162 25.4942 27.511 25.4694 27.511 25.4444C27.511 25.4193 27.5162 25.3946 27.5263 25.3717C27.5364 25.3489 27.5512 25.3284 27.5697 25.3118C27.5881 25.2951 27.6099 25.2825 27.6335 25.275C27.657 25.2674 27.6819 25.2649 27.7065 25.2677C27.7525 25.2677 27.7967 25.2862 27.8292 25.3191C27.8617 25.3521 27.88 25.3967 27.88 25.4432Z" fill="#EEFDFF"/>
<path d="M36.0925 24.7028C35.9349 24.8144 34.8356 22.5489 31.8849 20.5842C30.8487 19.9004 29.8238 19.4013 29.8847 19.2577C29.9455 19.1141 31.0988 19.383 32.0223 19.8161C34.9663 21.1973 36.2862 24.5683 36.0925 24.7028Z" fill="#030303"/>
<path d="M28.2087 30.6565C28.187 30.8411 28.103 31.0125 27.9708 31.1416C27.8386 31.2708 27.6664 31.3498 27.4834 31.3653L22.3026 31.8713C22.1204 31.8909 21.9371 31.8465 21.7834 31.7457C21.6296 31.6449 21.5147 31.4937 21.4579 31.3174C21.409 31.1531 21.3714 30.9856 21.3453 30.816C21.3422 30.7923 21.3438 30.7682 21.35 30.7451C21.3561 30.722 21.3668 30.7004 21.3813 30.6815C21.3956 30.6627 21.4136 30.6472 21.4342 30.6358C21.4547 30.6244 21.4774 30.6175 21.5007 30.6154L28.033 29.9772C28.056 29.9752 28.0792 29.9778 28.1012 29.9848C28.1232 29.9919 28.1437 30.0032 28.1614 30.0183C28.1961 30.0499 28.2171 30.0941 28.2199 30.1413C28.2286 30.3131 28.2249 30.4853 28.2087 30.6565Z" fill="#EEFDFF"/>
<path d="M28.2087 30.6592C28.1273 31.4572 27.7773 32.2027 27.2173 32.7707C26.6574 33.3387 25.9216 33.6948 25.1331 33.7792C24.3446 33.8636 23.5515 33.6712 22.8865 33.2343C22.2215 32.7974 21.7251 32.1426 21.4805 31.3794C21.5474 31.5401 21.6638 31.6746 21.8123 31.7629C21.9609 31.8511 22.1336 31.8885 22.3049 31.8695L27.4856 31.3657C27.6678 31.3494 27.839 31.2704 27.9706 31.1418C28.1022 31.0132 28.1862 30.8429 28.2087 30.6592Z" fill="url(#paint6_linear_274_12807)"/>
<defs>
<linearGradient id="paint0_linear_274_12807" x1="12.3917" y1="37.7384" x2="35.946" y2="14.4605" gradientUnits="userSpaceOnUse">
<stop offset="0.04" stop-color="#C5F1FF"/>
<stop offset="1" stop-color="#79CEE8"/>
</linearGradient>
<linearGradient id="paint1_linear_274_12807" x1="23.9338" y1="28.9262" x2="24.1459" y2="19.5039" gradientUnits="userSpaceOnUse">
<stop stop-color="#030D14"/>
<stop offset="1" stop-color="#0B2F45"/>
</linearGradient>
<radialGradient id="paint2_radial_274_12807" cx="0" cy="0" r="1" gradientUnits="userSpaceOnUse" gradientTransform="translate(18.53 24.1443) scale(3.86978 3.91573)">
<stop offset="0.13" stop-color="#B6E1EE"/>
<stop offset="1"/>
</radialGradient>
<linearGradient id="paint3_linear_274_12807" x1="16.1716" y1="24.1448" x2="20.886" y2="24.1448" gradientUnits="userSpaceOnUse">
<stop stop-color="#030D14"/>
<stop offset="1" stop-color="#0B2F45"/>
</linearGradient>
<radialGradient id="paint4_radial_274_12807" cx="0" cy="0" r="1" gradientUnits="userSpaceOnUse" gradientTransform="translate(29.0917 24.1443) scale(3.86978 3.91573)">
<stop offset="0.13" stop-color="#B6E1EE"/>
<stop offset="1"/>
</radialGradient>
<linearGradient id="paint5_linear_274_12807" x1="26.7356" y1="24.1448" x2="31.4501" y2="24.1448" gradientUnits="userSpaceOnUse">
<stop stop-color="#030D14"/>
<stop offset="1" stop-color="#0B2F45"/>
</linearGradient>
<linearGradient id="paint6_linear_274_12807" x1="22.5847" y1="33.8339" x2="25.0647" y2="29.793" gradientUnits="userSpaceOnUse">
<stop offset="0.04" stop-color="#6EACBE"/>
<stop offset="1" stop-color="#2885A2"/>
</linearGradient>
</defs>
</svg>
